Coordinates
version=1
nRows=13
nColumns=36
inDegrees=yes

Units are S.I. units (second, meters, Newtons, ...)
If the header above contains a line with 'inDegrees', this indicates whether rotational values are in degrees (yes) or radians (no).

endheader
time	pelvis_tilt	pelvis_list	pelvis_rotation	pelvis_tx	pelvis_ty	pelvis_tz	hip_flexion_r	hip_adduction_r	hip_rotation_r	knee_angle_r	knee_angle_r_beta	ankle_angle_r	subtalar_angle_r	mtp_angle_r	hip_flexion_l	hip_adduction_l	hip_rotation_l	knee_angle_l	knee_angle_l_beta	ankle_angle_l	subtalar_angle_l	mtp_angle_l	lumbar_extension	lumbar_bending	lumbar_rotation	arm_flex_r	arm_add_r	arm_rot_r	elbow_flex_r	pro_sup_r	arm_flex_l	arm_add_l	arm_rot_l	elbow_flex_l	pro_sup_l
      0.87000000	     -5.25685344	      1.35890726	      3.02181043	     -0.53711162	      1.23962106	     -0.59721557	     20.83535417	     -4.39790227	    -15.40603519	      7.14718698	      0.12474195	    -29.82763052	      9.14527364	     -6.38778324	     17.56904486	     -0.38805620	    -15.00823341	      2.68575450	      0.04687526	    -28.95723403	      3.56452900	     -6.38778324	    -13.93141690	      1.52869281	      0.02591354	    -73.91609525	    -27.94055279	    -77.88577491	    136.47849423	     85.27839126	    -49.36736302	    -28.39999848	    -55.64356012	    138.93676282	     94.68859983
      0.88000000	     -4.77406746	      1.41527156	      3.12298643	     -0.52579705	      1.21935515	     -0.59742592	     20.82156306	     -4.55400705	    -15.58862665	      6.00334755	      0.10477818	    -29.67931183	     11.43380863	     -6.45521949	     17.46525361	     -0.51884474	    -15.32689101	      2.29827692	      0.04011250	    -29.08430387	      5.81272597	     -6.45521949	    -14.32532054	      1.24891780	     -1.08788186	    -77.05357956	    -25.96909502	    -73.41071317	    136.97130561	     85.46650539	    -56.16824576	    -24.24090054	    -58.56447642	    139.87925226	     94.14710002
      0.89000000	     -4.54039424	      1.39736444	      3.16216812	     -0.51480666	      1.19781076	     -0.59752788	     21.21077811	     -4.57964202	    -15.17634933	      5.28109591	      0.09217251	    -29.70595477	     12.62901896	     -6.48527393	     17.74045994	     -0.74399326	    -15.35983823	      2.17769411	      0.03800793	    -29.54523837	      7.13716096	     -6.48527393	    -14.32159836	      1.23370931	     -0.95000680	    -80.51091864	    -22.14729472	    -69.18795818	    137.47449775	     85.65558633	    -61.32134305	    -21.28867814	    -58.81317799	    139.54534539	     93.88983652
      0.90000000	     -4.09426590	      1.37859166	      3.20717317	     -0.50390055	      1.17583401	     -0.59747638	     21.49161072	     -4.62084428	    -14.59094782	      5.10866877	      0.08916309	    -29.33885033	     13.40821762	     -6.54044188	     17.90462780	     -1.03929078	    -15.29640758	      2.42891007	      0.04239248	    -29.71658859	      8.42278570	     -6.54044188	    -14.58767967	      1.12304138	     -0.95007797	    -82.98490174	    -18.53548006	    -64.30042623	    137.25423073	     85.69901750	    -66.05647517	    -17.80436982	    -58.50337832	    138.85315058	     93.33113113
      0.91000000	     -3.53540261	      1.31897352	      3.28612435	     -0.49339824	      1.15324560	     -0.59744687	     21.94598900	     -4.70527584	    -14.06379456	      5.83670681	      0.10186975	    -28.81188155	     13.60189007	     -6.79938687	     18.17835880	     -1.42150276	    -15.05955738	      3.32029651	      0.05795011	    -29.05214325	      9.61963642	     -6.79938687	    -15.09785174	      1.02243965	     -1.01264146	    -84.44830734	    -15.00900837	    -59.65237686	    135.56401888	     94.82743488	    -70.06068432	    -13.83521010	    -57.86298756	    137.10723917	     96.99134201
      0.92000000	     -3.05706477	      1.17694871	      3.43113375	     -0.48365058	      1.12975672	     -0.59757131	     22.85257489	     -4.80289582	    -13.60511971	      7.61525344	      0.13291125	    -28.26692932	     12.95879677	     -6.83533006	     18.85110262	     -1.85539696	    -14.17867686	      4.96765439	      0.08670193	    -27.82668198	      9.61298458	     -6.83533006	    -15.67462401	      1.12629219	     -0.90801557	    -85.19569442	    -11.17727641	    -54.81043420	    134.08321691	     94.28685848	    -72.91718562	    -10.04971321	    -56.13707634	    135.00591128	     96.15153039
      0.93000000	     -2.63899820	      0.99346497	      3.59887989	     -0.47470297	      1.10525367	     -0.59767795	     24.26285130	     -4.94794905	    -13.16349309	     10.51627701	      0.18354366	    -27.79322720	     11.68833617	     -6.94185840	     20.11690375	     -2.40899066	    -13.53732045	      7.73149985	      0.13494013	    -26.39617925	      9.23670004	     -6.94185840	    -16.39720098	      1.28599974	     -0.97257429	    -84.98454027	     -7.72057828	    -50.09307565	    131.94286315	     92.08889106	    -74.70903547	     -6.08864649	    -54.38329348	    132.32514860	     93.52339042
      0.94000000	     -2.08188956	      0.92054193	      3.83929686	     -0.46667390	      1.08012200	     -0.59788679	     25.91554821	     -5.28131356	    -12.68934413	     14.30986030	      0.24975418	    -27.49870248	      9.93111380	     -7.10049767	     21.68089910	     -2.77961121	    -12.48519945	     11.55272419	      0.20163307	    -25.02797557	      7.27546797	     -7.10049767	    -17.53060450	      1.37565198	     -1.22239909	    -83.73775504	     -4.70218271	    -46.38225481	    128.14727179	    101.59241688	    -75.08957204	     -2.39655373	    -53.36031858	    127.92676965	     99.25685639
      0.95000000	     -1.72190664	      0.97157345	      4.19947108	     -0.45996541	      1.05405556	     -0.59844678	     28.24608133	     -5.85286622	    -12.07870131	     19.42362350	      0.33900618	    -25.74149614	      7.85995623	     -7.21168722	     24.01879549	     -2.84193613	    -11.11163871	     17.14921109	      0.29931020	    -21.01014972	      4.13555972	     -7.21168722	    -18.72225864	      1.42163396	     -1.55909045	    -81.64489206	     -1.90244093	    -43.06995313	    124.30598064	    102.66325991	    -74.19407269	      0.67371348	    -51.92452590	    123.56029123	     99.68350908
      0.96000000	     -1.52885353	      0.95388596	      4.65523719	     -0.45454181	      1.02684974	     -0.59913362	     31.33009145	     -6.46769609	    -11.62725405	     26.73032802	      0.46653223	    -19.68381133	      5.57642013	     -7.30486214	     27.40005835	     -2.91573116	     -9.96517849	     25.47252419	      0.44457942	    -11.76101035	      1.56264518	     -7.30486214	    -19.94452371	      1.57571656	     -1.95558528	    -78.74264373	      0.48706617	    -40.70842823	    119.99040413	    104.06335370	    -72.20145357	      3.21017363	    -50.46081595	    118.87185796	    100.06228704
      0.97000000	     -1.27423952	      0.84203338	      5.11086778	     -0.44956025	      0.99842858	     -0.59977934	     34.83984147	     -7.02125762	    -11.22922233	     35.97555517	      0.62789189	     -9.56534285	      3.74727701	     -7.37321597	     31.39956365	     -3.10019096	     -9.04252283	     35.54792607	      0.62042835	     -0.43570638	     -0.26610776	     -7.37321597	    -21.31072981	      1.85378194	     -2.32804168	    -75.25364194	      2.37810587	    -39.22997533	    115.40549815	    105.56274529	    -69.46933798	      5.26072101	    -49.07176196	    114.00942742	    100.25915068
      0.98000000	     -0.72406010	      0.74470207	      5.58324740	     -0.44464263	      0.96972026	     -0.60046025	     38.20846266	     -7.42475421	    -10.58039672	     45.29337383	      0.79051850	     -0.14824315	      1.89257725	     -7.41058287	     35.26041721	     -3.19579733	     -7.98454073	     45.33109841	      0.79117692	      8.22064726	     -2.04100061	     -7.41058287	    -23.01876843	      2.13491621	     -2.70384532	    -71.27217417	      3.67519688	    -38.28075534	    110.70767727	    106.14406355	    -66.22221298	      6.78140855	    -47.76632780	    109.33007045	     99.88562682
      0.99000000	     -0.05571279	      0.75177552	      6.16296919	     -0.44054998	      0.94177413	     -0.60115803	     41.32882911	     -7.69252007	     -9.69519631	     53.33256750	      0.93082890	      5.44963485	     -1.63506805	     -7.42567665	     38.72858984	     -2.88306055	     -6.53233349	     53.55284677	      0.93467350	     12.78207337	     -5.22124476	     -7.42567665	    -25.00590791	      2.32325112	     -3.16168928	    -66.65452614	      4.35706093	    -37.30468482	    106.03876884	    101.21480748	    -62.40712934	      7.76512091	    -46.29241681	    105.21107505	     95.77577544
